<svg id="svg" version="1.1" width="400" height="400" viewBox="0 0 400 400" xmlns="http://www.w3.org/2000/svg" xmlns:xlink="http://www.w3.org/1999/xlink"><g id="svgg"><path id="path0" d="M185.079 0.275 C 183.899 0.380,183.072 0.669,182.936 1.023 C 182.803 1.369,182.171 1.600,181.357 1.600 C 180.611 1.600,180.000 1.780,180.000 2.000 C 180.000 2.220,179.454 2.400,178.787 2.400 C 178.079 2.400,177.479 2.649,177.345 3.000 C 177.204 3.367,176.597 3.600,175.781 3.600 C 175.047 3.600,174.336 3.780,174.200 4.000 C 174.064 4.220,173.603 4.400,173.176 4.400 C 172.749 4.400,172.400 4.560,172.400 4.757 C 172.400 4.953,171.950 5.226,171.400 5.364 C 170.850 5.502,170.400 5.792,170.400 6.008 C 170.400 6.223,169.950 6.400,169.400 6.400 C 168.850 6.400,168.400 6.580,168.400 6.800 C 168.400 7.020,168.034 7.200,167.587 7.200 C 167.141 7.200,166.671 7.470,166.545 7.800 C 166.418 8.130,166.057 8.400,165.743 8.400 C 165.238 8.400,163.340 9.426,162.800 9.991 C 162.347 10.465,160.770 11.200,160.205 11.200 C 159.872 11.200,159.600 11.470,159.600 11.800 C 159.600 12.130,159.335 12.400,159.012 12.400 C 158.354 12.400,155.739 13.781,154.769 14.641 C 154.421 14.948,153.836 15.200,153.469 15.200 C 153.101 15.200,152.800 15.360,152.800 15.557 C 152.800 15.753,152.350 16.026,151.800 16.164 C 151.250 16.302,150.800 16.592,150.800 16.808 C 150.800 17.023,150.530 17.200,150.200 17.200 C 149.870 17.200,149.600 17.380,149.600 17.600 C 149.600 17.820,149.240 18.000,148.800 18.000 C 148.356 18.000,148.000 18.267,148.000 18.600 C 148.000 18.973,147.622 19.200,147.000 19.200 C 146.450 19.200,146.000 19.341,146.000 19.512 C 146.000 19.684,145.505 20.031,144.900 20.284 C 143.459 20.886,141.435 22.121,141.267 22.500 C 141.193 22.665,140.797 22.800,140.387 22.800 C 139.976 22.800,139.496 23.035,139.320 23.322 C 139.144 23.608,138.308 24.193,137.461 24.622 C 134.583 26.078,134.400 26.190,134.400 26.495 C 134.400 26.663,133.950 26.800,133.400 26.800 C 132.778 26.800,132.400 27.027,132.400 27.400 C 132.400 27.730,132.128 28.000,131.795 28.000 C 131.230 28.000,129.653 28.735,129.200 29.209 C 128.641 29.794,126.753 30.800,126.214 30.800 C 125.876 30.800,125.600 30.937,125.600 31.105 C 125.600 31.411,124.415 32.133,123.100 32.629 C 122.715 32.774,122.400 33.052,122.400 33.247 C 122.400 33.441,122.124 33.600,121.787 33.600 C 121.451 33.600,121.071 33.870,120.945 34.200 C 120.818 34.530,120.284 34.800,119.757 34.800 C 119.231 34.800,118.800 34.959,118.800 35.153 C 118.800 35.348,118.485 35.612,118.100 35.742 C 117.383 35.982,115.958 36.826,115.600 37.221 C 115.490 37.342,114.680 37.774,113.800 38.180 C 112.920 38.586,112.110 39.036,112.000 39.180 C 111.890 39.324,111.125 39.756,110.300 40.140 C 109.475 40.523,108.800 41.009,108.800 41.219 C 108.800 41.428,108.440 41.600,108.000 41.600 C 107.560 41.600,107.200 41.780,107.200 42.000 C 107.200 42.220,106.943 42.400,106.629 42.400 C 106.314 42.400,105.819 42.625,105.529 42.900 C 105.238 43.175,104.460 43.665,103.800 43.988 C 103.140 44.311,101.652 45.166,100.492 45.888 C 99.333 46.610,98.118 47.200,97.792 47.200 C 97.467 47.200,97.200 47.372,97.200 47.581 C 97.200 47.791,96.525 48.275,95.700 48.658 C 94.875 49.041,93.643 49.769,92.962 50.277 C 92.281 50.785,91.449 51.200,91.111 51.200 C 90.774 51.200,90.288 51.453,90.032 51.761 C 89.776 52.070,88.584 52.803,87.383 53.391 C 86.182 53.978,85.200 54.626,85.200 54.829 C 85.200 55.033,84.840 55.200,84.400 55.200 C 83.960 55.200,83.600 55.359,83.600 55.553 C 83.600 55.748,83.285 56.019,82.900 56.156 C 82.515 56.294,81.300 56.943,80.200 57.600 C 79.100 58.257,77.885 58.906,77.500 59.044 C 77.115 59.181,76.798 59.407,76.796 59.547 C 76.794 59.686,75.984 60.155,74.996 60.590 C 74.008 61.024,73.200 61.519,73.200 61.690 C 73.200 61.860,72.831 62.000,72.381 62.000 C 71.930 62.000,70.577 62.630,69.373 63.400 C 68.169 64.170,67.002 64.800,66.780 64.800 C 66.557 64.800,66.271 65.070,66.145 65.400 C 66.018 65.730,65.684 66.000,65.403 66.000 C 64.803 66.000,63.468 66.672,61.794 67.817 C 61.137 68.266,59.880 68.986,59.000 69.417 C 58.120 69.848,57.310 70.290,57.200 70.400 C 57.020 70.580,55.643 71.367,53.400 72.571 C 52.960 72.807,52.510 73.111,52.400 73.246 C 52.290 73.381,51.795 73.619,51.300 73.773 C 50.805 73.928,50.400 74.222,50.400 74.427 C 50.400 74.632,50.199 74.800,49.954 74.800 C 49.708 74.800,48.649 75.430,47.600 76.200 C 46.551 76.970,45.537 77.603,45.346 77.607 C 45.156 77.611,44.576 78.061,44.058 78.607 C 43.540 79.153,42.931 79.600,42.705 79.600 C 42.478 79.600,41.407 80.500,40.324 81.600 C 39.242 82.700,38.271 83.600,38.168 83.600 C 37.874 83.600,33.535 88.130,32.200 89.831 C 31.540 90.671,30.587 91.808,30.082 92.358 C 29.577 92.907,28.881 93.951,28.536 94.678 C 28.191 95.405,27.754 96.000,27.564 96.000 C 27.375 96.000,26.849 96.765,26.396 97.700 C 25.943 98.635,25.232 99.940,24.815 100.600 C 24.399 101.260,24.045 102.115,24.029 102.500 C 24.013 102.885,23.844 103.200,23.654 103.200 C 23.288 103.200,22.000 106.269,22.000 107.142 C 22.000 107.425,21.730 107.927,21.400 108.257 C 21.070 108.587,20.800 109.194,20.800 109.605 C 20.800 110.016,20.620 110.464,20.400 110.600 C 20.180 110.736,20.000 111.276,20.000 111.800 C 20.000 112.324,19.820 112.864,19.600 113.000 C 19.380 113.136,19.200 114.297,19.200 115.581 C 19.200 117.286,19.038 117.976,18.600 118.145 C 18.178 118.307,18.000 118.965,18.000 120.364 C 18.000 121.458,17.820 122.464,17.600 122.600 C 17.046 122.942,17.046 277.058,17.600 277.400 C 17.820 277.536,18.000 278.425,18.000 279.375 C 18.000 280.422,18.236 281.298,18.600 281.600 C 19.008 281.938,19.200 282.845,19.200 284.425 C 19.200 285.705,19.380 286.864,19.600 287.000 C 19.820 287.136,20.000 287.687,20.000 288.224 C 20.000 288.761,20.160 289.200,20.355 289.200 C 20.551 289.200,20.829 289.830,20.974 290.600 C 21.118 291.370,21.408 292.000,21.618 292.000 C 21.828 292.000,22.000 292.450,22.000 293.000 C 22.000 293.550,22.180 294.000,22.400 294.000 C 22.620 294.000,22.800 294.439,22.800 294.976 C 22.800 295.513,22.969 296.057,23.175 296.184 C 23.667 296.488,24.800 298.774,24.800 299.461 C 24.800 299.758,25.070 300.000,25.400 300.000 C 25.773 300.000,26.000 300.378,26.000 301.000 C 26.000 301.550,26.180 302.000,26.400 302.000 C 26.620 302.000,26.800 302.276,26.800 302.613 C 26.800 302.949,27.070 303.329,27.400 303.455 C 27.730 303.582,28.000 303.936,28.000 304.243 C 28.000 304.549,28.180 304.800,28.400 304.800 C 28.620 304.800,28.800 305.070,28.800 305.400 C 28.800 305.730,28.980 306.000,29.200 306.000 C 29.420 306.000,29.600 306.276,29.600 306.613 C 29.600 306.949,29.870 307.329,30.200 307.455 C 30.530 307.582,30.800 307.859,30.800 308.071 C 30.800 308.590,31.838 309.600,32.371 309.600 C 32.607 309.600,32.800 309.827,32.800 310.105 C 32.800 310.383,33.250 310.948,33.800 311.361 C 34.350 311.774,34.800 312.370,34.800 312.685 C 34.800 313.335,35.749 314.400,36.329 314.400 C 36.541 314.400,36.818 314.670,36.945 315.000 C 37.071 315.330,37.451 315.600,37.787 315.600 C 38.124 315.600,38.400 315.780,38.400 316.000 C 38.400 316.220,38.670 316.400,39.000 316.400 C 39.330 316.400,39.600 316.593,39.600 316.829 C 39.600 317.382,40.618 318.400,41.171 318.400 C 41.407 318.400,41.600 318.593,41.600 318.829 C 41.600 319.506,43.432 320.965,44.900 321.458 C 45.285 321.588,45.600 321.852,45.600 322.047 C 45.600 322.241,45.894 322.400,46.254 322.400 C 46.614 322.400,47.325 322.850,47.835 323.400 C 48.345 323.950,48.950 324.400,49.181 324.400 C 49.411 324.400,49.600 324.580,49.600 324.800 C 49.600 325.020,49.941 325.200,50.357 325.200 C 50.774 325.200,51.218 325.470,51.345 325.800 C 51.471 326.130,51.941 326.400,52.387 326.400 C 52.834 326.400,53.200 326.580,53.200 326.800 C 53.200 327.020,53.650 327.200,54.200 327.200 C 54.753 327.200,55.200 327.432,55.200 327.720 C 55.200 328.005,55.830 328.467,56.600 328.746 C 57.370 329.024,58.000 329.401,58.000 329.583 C 58.000 329.764,58.450 330.026,59.000 330.164 C 59.550 330.302,60.000 330.592,60.000 330.808 C 60.000 331.023,60.384 331.200,60.854 331.200 C 61.324 331.200,62.125 331.650,62.635 332.200 C 63.145 332.750,63.840 333.200,64.181 333.200 C 64.521 333.200,64.800 333.380,64.800 333.600 C 64.800 333.820,65.166 334.000,65.613 334.000 C 66.059 334.000,66.519 334.244,66.633 334.543 C 66.748 334.841,67.552 335.320,68.421 335.607 C 69.289 335.894,70.000 336.259,70.000 336.418 C 70.000 336.665,72.626 338.153,75.897 339.760 C 76.390 340.002,76.795 340.335,76.797 340.500 C 76.799 340.665,77.160 340.800,77.600 340.800 C 78.040 340.800,78.400 340.976,78.400 341.190 C 78.400 341.405,79.231 341.990,80.248 342.490 C 83.273 343.980,83.600 344.176,83.600 344.495 C 83.600 344.663,83.960 344.800,84.400 344.800 C 84.840 344.800,85.200 344.964,85.200 345.164 C 85.200 345.578,89.083 347.600,89.879 347.600 C 90.165 347.600,90.400 347.870,90.400 348.200 C 90.400 348.530,90.634 348.800,90.920 348.800 C 91.646 348.800,93.593 349.739,93.597 350.090 C 93.599 350.250,94.410 350.749,95.400 351.200 C 96.390 351.651,97.200 352.195,97.200 352.410 C 97.200 352.624,97.472 352.800,97.805 352.800 C 98.409 352.800,100.020 353.576,100.400 354.049 C 100.510 354.186,101.590 354.816,102.800 355.449 C 104.010 356.082,105.238 356.825,105.529 357.100 C 105.819 357.375,106.314 357.600,106.629 357.600 C 106.943 357.600,107.200 357.780,107.200 358.000 C 107.200 358.220,107.560 358.400,108.000 358.400 C 108.440 358.400,108.800 358.581,108.800 358.801 C 108.800 359.022,109.520 359.514,110.400 359.896 C 111.280 360.277,112.000 360.699,112.000 360.834 C 112.000 360.969,112.810 361.413,113.800 361.822 C 114.790 362.230,115.600 362.688,115.600 362.839 C 115.600 362.990,116.050 363.226,116.600 363.364 C 117.150 363.502,117.600 363.792,117.600 364.008 C 117.600 364.223,117.870 364.400,118.200 364.400 C 118.530 364.400,118.800 364.580,118.800 364.800 C 118.800 365.020,119.173 365.200,119.629 365.200 C 120.084 365.200,120.708 365.425,121.015 365.700 C 122.405 366.947,122.807 367.200,123.396 367.200 C 123.742 367.200,124.129 367.470,124.255 367.800 C 124.382 368.130,124.736 368.400,125.043 368.400 C 125.349 368.400,125.600 368.580,125.600 368.800 C 125.600 369.020,125.973 369.200,126.429 369.200 C 126.884 369.200,127.508 369.425,127.815 369.700 C 129.279 371.013,130.968 372.000,131.752 372.000 C 132.061 372.000,132.418 372.270,132.545 372.600 C 132.671 372.930,133.141 373.200,133.587 373.200 C 134.034 373.200,134.400 373.337,134.400 373.505 C 134.400 373.673,134.743 373.988,135.161 374.205 C 135.580 374.422,136.615 374.953,137.461 375.385 C 138.308 375.816,139.238 376.401,139.529 376.685 C 139.819 376.968,140.314 377.200,140.629 377.200 C 140.943 377.200,141.200 377.338,141.200 377.506 C 141.200 377.674,141.947 378.169,142.859 378.606 C 145.503 379.871,146.000 380.170,146.000 380.495 C 146.000 380.663,146.450 380.800,147.000 380.800 C 147.622 380.800,148.000 381.027,148.000 381.400 C 148.000 381.733,148.356 382.000,148.800 382.000 C 149.240 382.000,149.600 382.137,149.600 382.305 C 149.600 382.611,150.785 383.333,152.100 383.829 C 152.485 383.974,152.800 384.252,152.800 384.447 C 152.800 384.641,153.231 384.800,153.757 384.800 C 154.284 384.800,154.818 385.070,154.945 385.400 C 155.071 385.730,155.406 386.004,155.687 386.009 C 155.969 386.014,156.650 386.370,157.200 386.800 C 157.750 387.230,158.515 387.586,158.900 387.591 C 159.285 387.596,159.600 387.870,159.600 388.200 C 159.600 388.573,159.978 388.800,160.600 388.800 C 161.150 388.800,161.600 388.980,161.600 389.200 C 161.600 389.420,161.870 389.600,162.200 389.600 C 162.530 389.600,162.801 389.735,162.803 389.900 C 162.806 390.290,165.108 391.600,165.790 391.600 C 166.078 391.600,166.418 391.870,166.545 392.200 C 166.671 392.530,167.141 392.800,167.587 392.800 C 168.034 392.800,168.400 392.980,168.400 393.200 C 168.400 393.420,168.850 393.600,169.400 393.600 C 169.950 393.600,170.400 393.777,170.400 393.992 C 170.400 394.208,170.850 394.498,171.400 394.636 C 171.950 394.774,172.400 395.047,172.400 395.243 C 172.400 395.440,172.850 395.600,173.400 395.600 C 173.950 395.600,174.400 395.780,174.400 396.000 C 174.400 396.220,175.011 396.400,175.757 396.400 C 176.595 396.400,177.203 396.630,177.345 397.000 C 177.479 397.351,178.079 397.600,178.787 397.600 C 179.454 397.600,180.000 397.780,180.000 398.000 C 180.000 398.220,180.621 398.400,181.380 398.400 C 182.279 398.400,182.897 398.644,183.152 399.100 C 183.515 399.749,184.743 399.800,200.000 399.800 C 215.257 399.800,216.485 399.749,216.848 399.100 C 217.080 398.685,217.711 398.400,218.396 398.400 C 219.032 398.400,219.664 398.220,219.800 398.000 C 219.936 397.780,220.465 397.600,220.975 397.600 C 221.485 397.600,222.126 397.330,222.400 397.000 C 222.674 396.670,223.506 396.400,224.249 396.400 C 224.992 396.400,225.600 396.220,225.600 396.000 C 225.600 395.780,226.050 395.600,226.600 395.600 C 227.150 395.600,227.600 395.440,227.600 395.243 C 227.600 395.047,228.050 394.774,228.600 394.636 C 229.150 394.498,229.600 394.208,229.600 393.992 C 229.600 393.777,229.949 393.600,230.376 393.600 C 230.803 393.600,231.264 393.420,231.400 393.200 C 231.536 392.980,232.002 392.800,232.436 392.800 C 232.870 392.800,233.329 392.530,233.455 392.200 C 233.582 391.870,234.026 391.600,234.443 391.600 C 234.859 391.600,235.200 391.420,235.200 391.200 C 235.200 390.980,235.470 390.800,235.800 390.800 C 236.130 390.800,236.400 390.530,236.400 390.200 C 236.400 389.827,236.778 389.600,237.400 389.600 C 237.950 389.600,238.400 389.420,238.400 389.200 C 238.400 388.980,238.766 388.800,239.213 388.800 C 239.659 388.800,240.129 388.530,240.255 388.200 C 240.382 387.870,240.736 387.600,241.043 387.600 C 241.349 387.600,241.600 387.420,241.600 387.200 C 241.600 386.980,241.960 386.800,242.400 386.800 C 242.840 386.800,243.200 386.620,243.200 386.400 C 243.200 386.180,243.566 386.000,244.013 386.000 C 244.459 386.000,244.929 385.730,245.055 385.400 C 245.182 385.070,245.634 384.800,246.060 384.800 C 246.485 384.800,247.231 384.426,247.717 383.969 C 248.203 383.513,249.365 382.788,250.300 382.359 C 251.235 381.931,252.000 381.405,252.000 381.190 C 252.000 380.976,252.450 380.800,253.000 380.800 C 253.550 380.800,254.000 380.620,254.000 380.400 C 254.000 380.180,254.270 380.000,254.600 380.000 C 254.930 380.000,255.200 379.823,255.200 379.608 C 255.200 379.392,255.650 379.102,256.200 378.964 C 256.750 378.826,257.200 378.553,257.200 378.357 C 257.200 378.160,257.560 378.000,258.000 378.000 C 258.440 378.000,258.800 377.840,258.800 377.643 C 258.800 377.447,259.250 377.174,259.800 377.036 C 260.350 376.898,260.800 376.608,260.800 376.392 C 260.800 376.177,261.070 376.000,261.400 376.000 C 261.730 376.000,262.000 375.820,262.000 375.600 C 262.000 375.380,262.351 375.200,262.780 375.200 C 263.209 375.200,263.704 374.975,263.880 374.700 C 264.302 374.041,265.830 373.200,266.607 373.200 C 266.947 373.200,267.329 372.930,267.455 372.600 C 267.582 372.270,267.936 372.000,268.243 372.000 C 268.549 372.000,268.800 371.820,268.800 371.600 C 268.800 371.380,269.055 371.200,269.368 371.200 C 270.081 371.200,272.394 369.902,272.397 369.500 C 272.399 369.335,272.734 369.200,273.142 369.200 C 273.549 369.200,274.369 368.750,274.962 368.200 C 275.556 367.650,276.257 367.194,276.521 367.187 C 277.204 367.169,278.400 366.195,278.400 365.656 C 278.400 365.405,278.852 365.200,279.405 365.200 C 280.517 365.200,282.025 364.474,282.520 363.700 C 282.696 363.425,283.151 363.200,283.532 363.200 C 283.912 363.200,284.483 362.840,284.800 362.400 C 285.117 361.960,285.765 361.600,286.239 361.600 C 286.714 361.600,287.326 361.330,287.600 361.000 C 287.874 360.670,288.346 360.400,288.649 360.400 C 288.952 360.400,289.200 360.220,289.200 360.000 C 289.200 359.780,289.462 359.600,289.782 359.600 C 290.102 359.600,290.814 359.150,291.364 358.600 C 291.914 358.050,292.713 357.600,293.139 357.600 C 293.565 357.600,294.018 357.330,294.145 357.000 C 294.271 356.670,294.741 356.400,295.187 356.400 C 295.634 356.400,296.000 356.254,296.000 356.075 C 296.000 355.896,296.623 355.505,297.383 355.207 C 298.144 354.908,298.859 354.424,298.971 354.132 C 299.083 353.839,299.541 353.600,299.987 353.600 C 300.434 353.600,300.800 353.420,300.800 353.200 C 300.800 352.980,301.166 352.800,301.613 352.800 C 302.059 352.800,302.529 352.530,302.655 352.200 C 302.782 351.870,303.136 351.600,303.443 351.600 C 303.749 351.600,304.000 351.420,304.000 351.200 C 304.000 350.980,304.366 350.800,304.813 350.800 C 305.259 350.800,305.729 350.530,305.855 350.200 C 305.982 349.870,306.426 349.600,306.843 349.600 C 307.259 349.600,307.600 349.420,307.600 349.200 C 307.600 348.980,308.050 348.800,308.600 348.800 C 309.222 348.800,309.600 348.573,309.600 348.200 C 309.600 347.870,309.870 347.600,310.200 347.600 C 310.530 347.600,310.800 347.420,310.800 347.200 C 310.800 346.980,311.250 346.800,311.800 346.800 C 312.350 346.800,312.800 346.620,312.800 346.400 C 312.800 346.180,313.076 346.000,313.413 346.000 C 313.749 346.000,314.129 345.730,314.255 345.400 C 314.382 345.070,314.851 344.800,315.297 344.800 C 315.743 344.800,316.525 344.350,317.035 343.800 C 317.545 343.250,318.330 342.800,318.781 342.800 C 319.231 342.800,319.600 342.620,319.600 342.400 C 319.600 342.180,319.941 342.000,320.357 342.000 C 320.774 342.000,321.218 341.730,321.345 341.400 C 321.471 341.070,321.941 340.800,322.387 340.800 C 322.834 340.800,323.200 340.620,323.200 340.400 C 323.200 340.180,323.470 340.000,323.800 340.000 C 324.130 340.000,324.400 339.823,324.400 339.608 C 324.400 339.392,324.850 339.102,325.400 338.964 C 325.950 338.826,326.400 338.553,326.400 338.357 C 326.400 338.160,326.655 338.000,326.968 338.000 C 327.681 338.000,329.994 336.702,329.997 336.300 C 329.999 336.135,330.270 336.000,330.600 336.000 C 330.930 336.000,331.200 335.820,331.200 335.600 C 331.200 335.380,331.566 335.200,332.013 335.200 C 332.459 335.200,332.929 334.930,333.055 334.600 C 333.182 334.270,333.509 334.000,333.781 334.000 C 334.550 334.000,336.800 332.786,336.800 332.371 C 336.800 332.167,337.070 332.000,337.400 332.000 C 337.730 332.000,338.000 331.820,338.000 331.600 C 338.000 331.380,338.450 331.200,339.000 331.200 C 339.550 331.200,340.000 331.048,340.000 330.863 C 340.000 330.678,341.070 330.003,342.378 329.363 C 343.687 328.723,344.767 327.975,344.778 327.700 C 344.790 327.425,345.250 327.200,345.800 327.200 C 346.350 327.200,346.800 327.040,346.800 326.843 C 346.800 326.647,347.250 326.374,347.800 326.236 C 348.350 326.098,348.800 325.808,348.800 325.592 C 348.800 325.377,349.160 325.200,349.600 325.200 C 350.040 325.200,350.400 325.020,350.400 324.800 C 350.400 324.580,350.589 324.400,350.819 324.400 C 351.050 324.400,351.655 323.950,352.165 323.400 C 352.675 322.850,353.386 322.400,353.746 322.400 C 354.106 322.400,354.400 322.241,354.400 322.047 C 354.400 321.852,354.715 321.588,355.100 321.458 C 356.568 320.965,358.400 319.506,358.400 318.829 C 358.400 318.593,358.593 318.400,358.829 318.400 C 359.382 318.400,360.400 317.382,360.400 316.829 C 360.400 316.593,360.670 316.400,361.000 316.400 C 361.330 316.400,361.600 316.220,361.600 316.000 C 361.600 315.780,361.876 315.600,362.213 315.600 C 362.549 315.600,362.929 315.330,363.055 315.000 C 363.182 314.670,363.459 314.400,363.671 314.400 C 364.251 314.400,365.200 313.335,365.200 312.685 C 365.200 312.370,365.650 311.774,366.200 311.361 C 366.750 310.948,367.200 310.383,367.200 310.105 C 367.200 309.827,367.393 309.600,367.629 309.600 C 368.162 309.600,369.200 308.590,369.200 308.071 C 369.200 307.859,369.470 307.582,369.800 307.455 C 370.130 307.329,370.400 306.949,370.400 306.613 C 370.400 306.276,370.580 306.000,370.800 306.000 C 371.020 306.000,371.200 305.730,371.200 305.400 C 371.200 305.070,371.380 304.800,371.600 304.800 C 371.820 304.800,372.000 304.549,372.000 304.243 C 372.000 303.936,372.270 303.582,372.600 303.455 C 372.930 303.329,373.200 302.949,373.200 302.613 C 373.200 302.276,373.380 302.000,373.600 302.000 C 373.820 302.000,374.000 301.550,374.000 301.000 C 374.000 300.378,374.227 300.000,374.600 300.000 C 374.930 300.000,375.200 299.758,375.200 299.461 C 375.200 298.774,376.333 296.488,376.825 296.184 C 377.031 296.057,377.200 295.513,377.200 294.976 C 377.200 294.439,377.380 294.000,377.600 294.000 C 377.820 294.000,378.000 293.550,378.000 293.000 C 378.000 292.450,378.172 292.000,378.382 292.000 C 378.592 292.000,378.882 291.370,379.026 290.600 C 379.171 289.830,379.449 289.200,379.645 289.200 C 379.840 289.200,380.000 288.761,380.000 288.224 C 380.000 287.687,380.180 287.136,380.400 287.000 C 380.620 286.864,380.800 285.705,380.800 284.425 C 380.800 282.845,380.992 281.938,381.400 281.600 C 381.764 281.298,382.000 280.422,382.000 279.375 C 382.000 278.425,382.180 277.536,382.400 277.400 C 382.664 277.237,382.800 251.004,382.800 200.000 C 382.800 148.996,382.664 122.763,382.400 122.600 C 382.180 122.464,382.000 121.458,382.000 120.364 C 382.000 118.965,381.822 118.307,381.400 118.145 C 380.962 117.976,380.800 117.286,380.800 115.581 C 380.800 114.297,380.620 113.136,380.400 113.000 C 380.180 112.864,380.000 112.324,380.000 111.800 C 380.000 111.276,379.834 110.745,379.631 110.619 C 379.428 110.494,379.143 109.853,378.999 109.195 C 378.855 108.538,378.571 108.000,378.368 108.000 C 378.166 108.000,378.000 107.691,378.000 107.313 C 378.000 106.309,376.750 103.200,376.346 103.200 C 376.156 103.200,375.987 102.885,375.971 102.500 C 375.955 102.115,375.603 101.260,375.189 100.600 C 374.774 99.940,374.125 98.789,373.744 98.041 C 373.364 97.294,372.636 96.233,372.127 95.683 C 371.617 95.133,371.200 94.517,371.200 94.313 C 371.200 93.884,368.393 90.400,366.501 88.481 C 365.785 87.755,365.200 87.080,365.200 86.981 C 365.200 86.747,362.056 83.600,361.822 83.600 C 361.724 83.600,360.758 82.700,359.676 81.600 C 358.593 80.500,357.572 79.600,357.407 79.600 C 357.242 79.600,356.249 78.970,355.200 78.200 C 354.151 77.430,353.191 76.800,353.067 76.800 C 352.943 76.800,352.356 76.350,351.762 75.800 C 351.169 75.250,350.439 74.800,350.142 74.800 C 349.844 74.800,349.600 74.638,349.600 74.439 C 349.600 74.241,349.105 73.886,348.500 73.651 C 347.895 73.415,346.680 72.773,345.800 72.224 C 344.920 71.674,343.480 70.850,342.600 70.391 C 339.975 69.025,337.813 67.814,337.600 67.591 C 337.041 67.006,335.153 66.000,334.614 66.000 C 334.276 66.000,333.999 65.865,333.997 65.700 C 333.993 65.120,328.244 62.000,327.179 62.000 C 326.750 62.000,326.400 61.823,326.400 61.608 C 326.400 61.392,325.950 61.102,325.400 60.964 C 324.850 60.826,324.400 60.553,324.400 60.357 C 324.400 60.160,324.130 60.000,323.800 60.000 C 323.470 60.000,323.200 59.820,323.200 59.600 C 323.200 59.380,322.859 59.200,322.443 59.200 C 322.026 59.200,321.582 58.930,321.455 58.600 C 321.329 58.270,320.859 58.000,320.413 58.000 C 319.966 58.000,319.600 57.820,319.600 57.600 C 319.600 57.380,319.150 57.200,318.600 57.200 C 317.978 57.200,317.600 56.973,317.600 56.600 C 317.600 56.270,317.330 56.000,317.000 56.000 C 316.670 56.000,316.400 55.820,316.400 55.600 C 316.400 55.380,316.062 55.200,315.649 55.200 C 315.236 55.200,314.674 54.930,314.400 54.600 C 314.126 54.270,313.654 54.000,313.351 54.000 C 313.048 54.000,312.800 53.820,312.800 53.600 C 312.800 53.380,312.350 53.200,311.800 53.200 C 311.250 53.200,310.800 53.020,310.800 52.800 C 310.800 52.580,310.530 52.400,310.200 52.400 C 309.870 52.400,309.600 52.130,309.600 51.800 C 309.600 51.427,309.222 51.200,308.600 51.200 C 308.050 51.200,307.600 51.020,307.600 50.800 C 307.600 50.580,307.259 50.400,306.843 50.400 C 306.426 50.400,305.982 50.130,305.855 49.800 C 305.729 49.470,305.259 49.200,304.813 49.200 C 304.366 49.200,304.000 49.020,304.000 48.800 C 304.000 48.580,303.749 48.400,303.443 48.400 C 303.136 48.400,302.782 48.130,302.655 47.800 C 302.529 47.470,302.059 47.200,301.613 47.200 C 301.166 47.200,300.800 47.020,300.800 46.800 C 300.800 46.580,300.539 46.400,300.221 46.400 C 299.902 46.400,299.156 45.950,298.562 45.400 C 297.969 44.850,297.149 44.400,296.742 44.400 C 296.334 44.400,296.000 44.220,296.000 44.000 C 296.000 43.780,295.634 43.600,295.187 43.600 C 294.741 43.600,294.271 43.330,294.145 43.000 C 294.018 42.670,293.565 42.400,293.139 42.400 C 292.713 42.400,291.914 41.950,291.364 41.400 C 290.814 40.850,290.102 40.400,289.782 40.400 C 289.462 40.400,289.200 40.220,289.200 40.000 C 289.200 39.780,288.952 39.600,288.649 39.600 C 288.346 39.600,287.874 39.330,287.600 39.000 C 287.326 38.670,286.714 38.400,286.239 38.400 C 285.765 38.400,285.117 38.040,284.800 37.600 C 284.483 37.160,284.006 36.800,283.740 36.800 C 283.475 36.800,283.012 36.575,282.713 36.300 C 281.721 35.388,280.424 34.800,279.405 34.800 C 278.852 34.800,278.400 34.595,278.400 34.344 C 278.400 33.729,277.165 32.828,276.300 32.813 C 275.915 32.806,275.599 32.575,275.597 32.300 C 275.594 31.784,273.839 30.800,272.920 30.800 C 272.634 30.800,272.399 30.665,272.397 30.500 C 272.394 30.098,270.081 28.800,269.368 28.800 C 269.055 28.800,268.800 28.620,268.800 28.400 C 268.800 28.180,268.549 28.000,268.243 28.000 C 267.936 28.000,267.582 27.730,267.455 27.400 C 267.329 27.070,266.859 26.800,266.413 26.800 C 265.966 26.800,265.600 26.620,265.600 26.400 C 265.600 26.180,265.259 26.000,264.843 26.000 C 264.426 26.000,263.982 25.730,263.855 25.400 C 263.729 25.070,263.259 24.800,262.813 24.800 C 262.366 24.800,262.000 24.620,262.000 24.400 C 262.000 24.180,261.730 24.000,261.400 24.000 C 261.070 24.000,260.800 23.823,260.800 23.608 C 260.800 23.392,260.350 23.102,259.800 22.964 C 259.250 22.826,258.800 22.553,258.800 22.357 C 258.800 22.160,258.440 22.000,258.000 22.000 C 257.560 22.000,257.200 21.840,257.200 21.643 C 257.200 21.447,256.750 21.174,256.200 21.036 C 255.650 20.898,255.200 20.608,255.200 20.392 C 255.200 20.177,254.930 20.000,254.600 20.000 C 254.270 20.000,254.000 19.820,254.000 19.600 C 254.000 19.380,253.550 19.200,253.000 19.200 C 252.378 19.200,252.000 18.973,252.000 18.600 C 252.000 18.270,251.758 18.000,251.461 18.000 C 250.659 18.000,248.400 16.798,248.400 16.371 C 248.400 16.167,248.130 16.000,247.800 16.000 C 247.470 16.000,247.200 15.820,247.200 15.600 C 247.200 15.380,246.769 15.200,246.243 15.200 C 245.716 15.200,245.182 14.930,245.055 14.600 C 244.929 14.270,244.459 14.000,244.013 14.000 C 243.566 14.000,243.200 13.820,243.200 13.600 C 243.200 13.380,242.840 13.200,242.400 13.200 C 241.960 13.200,241.600 13.020,241.600 12.800 C 241.600 12.580,241.349 12.400,241.043 12.400 C 240.736 12.400,240.382 12.130,240.255 11.800 C 240.129 11.470,239.659 11.200,239.213 11.200 C 238.766 11.200,238.400 11.020,238.400 10.800 C 238.400 10.580,237.950 10.400,237.400 10.400 C 236.850 10.400,236.400 10.195,236.400 9.944 C 236.400 9.343,235.172 8.429,234.343 8.413 C 233.981 8.406,233.582 8.130,233.455 7.800 C 233.329 7.470,232.870 7.200,232.436 7.200 C 232.002 7.200,231.536 7.020,231.400 6.800 C 231.264 6.580,230.803 6.400,230.376 6.400 C 229.949 6.400,229.600 6.223,229.600 6.008 C 229.600 5.792,229.150 5.502,228.600 5.364 C 228.050 5.226,227.600 4.953,227.600 4.757 C 227.600 4.560,227.150 4.400,226.600 4.400 C 226.050 4.400,225.600 4.220,225.600 4.000 C 225.600 3.780,224.992 3.600,224.249 3.600 C 223.506 3.600,222.674 3.330,222.400 3.000 C 222.126 2.670,221.485 2.400,220.975 2.400 C 220.465 2.400,219.936 2.220,219.800 2.000 C 219.664 1.780,219.032 1.600,218.396 1.600 C 217.711 1.600,217.080 1.315,216.848 0.900 C 216.464 0.213,191.346 -0.281,185.079 0.275 M207.600 31.888 C 210.872 32.613,214.260 34.065,218.924 36.739 C 219.762 37.220,221.652 38.302,223.124 39.144 C 224.596 39.987,227.420 41.624,229.400 42.782 C 232.903 44.832,235.130 46.109,238.000 47.715 C 239.849 48.750,254.433 57.168,257.050 58.712 C 258.178 59.377,260.158 60.508,261.450 61.226 C 262.743 61.943,264.398 62.865,265.128 63.274 C 266.469 64.025,274.127 68.463,280.400 72.125 C 284.379 74.448,285.376 75.016,288.600 76.791 C 289.920 77.518,291.450 78.416,292.000 78.786 C 292.550 79.155,294.080 80.058,295.400 80.790 C 298.644 82.591,299.611 83.145,303.800 85.598 C 305.780 86.758,307.940 87.986,308.600 88.327 C 309.260 88.668,311.017 89.724,312.504 90.673 C 313.991 91.623,315.282 92.400,315.371 92.400 C 315.461 92.400,317.364 93.480,319.600 94.800 C 321.836 96.120,323.738 97.200,323.827 97.200 C 323.915 97.200,324.936 97.763,326.094 98.450 C 327.252 99.138,329.280 100.334,330.600 101.108 C 341.497 107.496,346.112 112.719,349.443 122.427 L 350.600 125.800 350.600 200.200 L 350.600 274.600 349.450 277.600 C 346.141 286.233,341.565 292.024,334.522 296.490 C 333.560 297.101,332.701 297.600,332.614 297.600 C 332.526 297.600,330.174 298.950,327.387 300.600 C 324.600 302.250,322.244 303.600,322.152 303.600 C 322.059 303.600,321.223 304.080,320.293 304.667 C 318.844 305.582,315.107 307.784,310.600 310.379 C 309.940 310.758,308.320 311.663,307.000 312.388 C 305.680 313.113,304.420 313.845,304.200 314.014 C 303.980 314.184,302.990 314.760,302.000 315.295 C 299.216 316.798,296.553 318.322,292.263 320.865 C 290.097 322.149,288.235 323.200,288.125 323.200 C 288.014 323.200,287.446 323.534,286.862 323.943 C 286.278 324.351,284.990 325.132,284.000 325.677 C 283.010 326.222,281.120 327.262,279.800 327.987 C 278.480 328.713,277.220 329.443,277.000 329.610 C 276.780 329.778,275.970 330.268,275.200 330.700 C 274.430 331.132,271.370 332.890,268.400 334.606 C 265.430 336.322,260.750 339.020,258.000 340.602 C 255.250 342.184,251.399 344.406,249.443 345.539 C 247.486 346.673,245.825 347.600,245.750 347.600 C 245.676 347.600,244.631 348.230,243.427 349.000 C 242.223 349.770,241.135 350.400,241.009 350.400 C 240.883 350.400,239.660 351.092,238.290 351.937 C 236.921 352.783,234.990 353.932,234.000 354.492 C 230.198 356.640,229.242 357.189,224.000 360.237 C 214.780 365.596,211.524 367.057,205.894 368.359 C 203.463 368.921,195.997 368.930,193.846 368.374 C 187.168 366.645,186.496 366.336,174.800 359.604 C 170.510 357.135,166.190 354.654,165.200 354.090 C 164.210 353.526,162.080 352.286,160.467 351.333 C 158.854 350.380,157.455 349.600,157.359 349.600 C 157.263 349.600,156.513 349.179,155.692 348.664 C 154.871 348.149,153.390 347.268,152.400 346.708 C 151.410 346.147,148.980 344.744,147.000 343.589 C 145.020 342.435,142.770 341.134,142.000 340.699 C 141.230 340.265,139.790 339.451,138.800 338.892 C 137.810 338.332,135.879 337.183,134.510 336.337 C 133.140 335.492,131.917 334.800,131.791 334.800 C 131.665 334.800,130.577 334.170,129.373 333.400 C 128.169 332.630,127.124 332.000,127.050 332.000 C 126.975 332.000,125.314 331.075,123.357 329.944 C 121.401 328.813,119.080 327.489,118.200 327.001 C 117.320 326.513,113.927 324.559,110.661 322.657 C 107.394 320.756,104.663 319.200,104.592 319.200 C 104.521 319.200,103.012 318.300,101.239 317.200 C 99.465 316.100,97.936 315.200,97.840 315.200 C 97.744 315.200,96.296 314.390,94.622 313.400 C 92.947 312.410,91.499 311.600,91.403 311.600 C 91.307 311.600,89.917 310.821,88.314 309.869 C 84.342 307.509,80.164 305.086,78.000 303.888 C 59.576 293.686,53.356 287.803,50.628 278.000 C 50.475 277.450,50.192 276.640,50.000 276.200 C 48.932 273.756,48.800 265.371,48.801 199.932 C 48.802 133.558,48.905 127.433,50.082 123.400 C 51.248 119.405,54.368 113.552,56.799 110.800 C 57.285 110.250,57.889 109.526,58.141 109.192 C 59.613 107.243,64.423 103.750,70.000 100.580 C 71.430 99.767,73.140 98.792,73.800 98.413 C 74.460 98.033,76.080 97.123,77.400 96.390 C 78.720 95.658,80.250 94.755,80.800 94.386 C 81.350 94.016,82.880 93.118,84.200 92.391 C 87.424 90.616,88.421 90.048,92.400 87.725 C 98.716 84.038,106.335 79.623,107.672 78.875 C 108.402 78.466,109.837 77.666,110.860 77.096 C 111.883 76.526,113.413 75.629,114.260 75.101 C 115.107 74.573,116.070 74.013,116.400 73.855 C 116.730 73.698,117.360 73.351,117.800 73.084 C 118.240 72.818,120.310 71.629,122.400 70.442 C 124.490 69.255,127.321 67.590,128.690 66.742 C 130.060 65.894,131.258 65.200,131.353 65.200 C 131.447 65.200,133.054 64.300,134.923 63.200 C 136.792 62.100,138.414 61.200,138.529 61.200 C 138.643 61.200,140.188 60.300,141.961 59.200 C 143.735 58.100,145.296 57.200,145.431 57.200 C 145.566 57.200,146.154 56.865,146.738 56.457 C 147.322 56.048,148.880 55.118,150.200 54.391 C 154.290 52.138,155.096 51.675,156.766 50.621 C 157.656 50.060,158.482 49.600,158.602 49.600 C 158.722 49.600,159.940 48.908,161.310 48.063 C 162.679 47.217,164.610 46.068,165.600 45.508 C 169.288 43.424,170.324 42.831,175.600 39.780 C 185.942 33.798,186.272 33.646,193.200 31.662 C 194.902 31.175,205.103 31.335,207.600 31.888 M114.200 135.955 C 104.523 137.734,99.157 148.599,103.517 157.586 C 104.897 160.430,105.990 161.535,114.400 168.596 C 116.490 170.351,118.429 172.006,118.710 172.275 C 118.990 172.543,120.070 173.446,121.110 174.281 C 122.149 175.117,123.090 175.891,123.200 176.002 C 123.469 176.274,128.329 180.395,129.567 181.400 C 130.109 181.840,131.283 182.841,132.176 183.624 C 133.069 184.408,135.960 186.834,138.600 189.015 C 141.240 191.197,143.490 193.076,143.600 193.192 C 143.710 193.307,145.375 194.726,147.300 196.344 C 151.350 199.749,151.456 200.129,148.900 202.102 C 147.855 202.909,146.460 204.076,145.800 204.697 C 145.140 205.317,141.810 208.151,138.400 210.993 C 134.990 213.836,132.110 216.260,132.000 216.381 C 131.890 216.501,130.090 218.035,128.000 219.790 C 125.910 221.544,124.110 223.078,124.000 223.199 C 123.890 223.320,121.190 225.608,118.000 228.284 C 107.238 237.311,105.478 238.949,104.136 241.185 C 97.983 251.443,105.012 263.800,117.000 263.800 C 123.073 263.800,122.756 263.995,138.835 250.403 C 141.566 248.094,144.160 245.903,144.600 245.534 C 145.571 244.719,154.224 237.369,157.000 235.001 C 158.100 234.063,160.367 232.149,162.038 230.747 C 181.228 214.658,185.549 210.886,187.050 208.913 C 191.510 203.049,190.899 194.448,185.652 189.239 C 183.669 187.269,182.278 186.045,178.799 183.205 C 177.589 182.219,176.510 181.313,176.400 181.194 C 176.290 181.074,174.490 179.552,172.400 177.810 C 170.310 176.069,167.869 174.004,166.976 173.222 C 166.083 172.440,164.909 171.440,164.367 171.000 C 162.861 169.777,158.226 165.834,158.000 165.583 C 157.890 165.461,155.010 163.036,151.600 160.193 C 148.190 157.351,145.171 154.803,144.890 154.531 C 144.610 154.260,143.530 153.354,142.491 152.519 C 141.451 151.683,140.401 150.820,140.157 150.600 C 125.264 137.195,120.886 134.725,114.200 135.955 M210.048 234.045 C 195.538 236.495,193.008 256.411,206.400 262.757 L 208.600 263.800 246.800 263.915 C 288.256 264.039,286.979 264.101,290.600 261.785 C 301.578 254.764,299.929 239.292,287.710 234.673 C 285.201 233.725,215.292 233.159,210.048 234.045 " stroke="none" fill="#070707" fill-rule="evenodd"></path><path id="path1" d="M195.400 32.202 C 190.424 32.975,187.063 34.308,179.800 38.387 C 178.920 38.881,178.020 39.422,177.800 39.590 C 177.580 39.757,176.320 40.487,175.000 41.212 C 170.664 43.594,169.805 44.082,169.400 44.390 C 169.180 44.557,167.960 45.266,166.689 45.965 C 165.418 46.664,163.528 47.755,162.489 48.389 C 161.450 49.023,159.520 50.121,158.200 50.828 C 156.880 51.536,155.173 52.539,154.407 53.057 C 153.641 53.576,152.878 54.000,152.711 54.000 C 152.545 54.000,151.190 54.781,149.701 55.735 C 148.212 56.690,146.275 57.805,145.397 58.214 C 144.519 58.624,143.710 59.076,143.600 59.219 C 143.490 59.363,142.320 60.077,141.000 60.806 C 136.360 63.368,135.797 63.688,135.400 63.990 C 135.180 64.157,133.920 64.887,132.600 65.612 C 128.599 67.810,127.719 68.315,126.034 69.379 C 125.144 69.940,124.319 70.400,124.200 70.400 C 124.081 70.400,123.223 70.880,122.293 71.467 C 119.332 73.336,113.898 76.400,113.543 76.400 C 113.354 76.400,113.198 76.535,113.195 76.700 C 113.193 76.865,112.428 77.357,111.495 77.794 C 110.563 78.231,109.710 78.681,109.600 78.794 C 109.490 78.907,109.040 79.196,108.600 79.437 C 105.015 81.393,102.724 82.714,100.934 83.859 C 99.782 84.597,98.754 85.200,98.652 85.200 C 98.549 85.200,96.636 86.280,94.400 87.600 C 92.164 88.920,90.242 90.000,90.129 90.000 C 90.016 90.000,89.446 90.335,88.862 90.743 C 87.955 91.378,86.330 92.310,82.200 94.563 C 81.760 94.804,81.130 95.207,80.800 95.460 C 80.470 95.713,79.300 96.418,78.200 97.026 C 77.100 97.634,75.570 98.492,74.800 98.933 C 74.030 99.374,72.680 100.126,71.799 100.603 C 59.269 107.403,53.319 114.272,50.616 125.058 C 49.688 128.762,49.681 270.575,50.609 274.576 C 51.481 278.335,53.041 281.939,55.506 285.888 C 57.710 289.420,65.506 296.400,67.246 296.400 C 67.441 296.400,67.600 296.541,67.600 296.712 C 67.600 296.884,68.095 297.236,68.700 297.494 C 69.305 297.752,70.808 298.557,72.040 299.282 C 73.271 300.007,75.791 301.465,77.640 302.521 C 79.488 303.578,81.540 304.763,82.200 305.155 C 82.860 305.547,84.237 306.334,85.260 306.904 C 86.283 307.473,87.813 308.372,88.660 308.900 C 89.507 309.428,91.550 310.589,93.200 311.479 C 97.910 314.021,100.167 315.282,100.600 315.612 C 100.820 315.779,101.900 316.415,103.000 317.024 C 106.880 319.173,107.563 319.567,109.166 320.579 C 110.056 321.140,110.881 321.600,110.999 321.600 C 111.117 321.600,112.606 322.461,114.307 323.512 C 116.008 324.564,118.030 325.739,118.800 326.123 C 119.570 326.508,120.470 326.997,120.800 327.211 C 121.130 327.425,124.370 329.310,128.000 331.400 C 131.630 333.490,134.870 335.379,135.200 335.597 C 135.530 335.815,136.880 336.558,138.200 337.248 C 139.520 337.939,140.690 338.615,140.800 338.752 C 140.910 338.888,141.360 339.196,141.800 339.437 C 145.862 341.653,147.460 342.551,147.800 342.811 C 148.020 342.979,149.100 343.615,150.200 344.224 C 152.803 345.666,153.702 346.183,159.200 349.400 C 164.920 352.747,165.575 353.124,171.000 356.200 C 173.420 357.571,177.020 359.650,179.000 360.818 C 188.572 366.469,191.484 367.389,199.800 367.395 C 208.893 367.402,210.967 366.665,224.733 358.533 C 226.346 357.580,227.738 356.800,227.825 356.800 C 227.913 356.800,228.933 356.195,230.092 355.456 C 231.252 354.717,233.280 353.535,234.600 352.830 C 235.920 352.124,237.630 351.180,238.400 350.732 C 260.423 337.910,261.654 337.200,261.876 337.200 C 261.986 337.200,262.554 336.865,263.138 336.457 C 263.722 336.048,265.280 335.118,266.600 334.391 C 270.690 332.138,271.496 331.675,273.166 330.621 C 274.056 330.060,274.854 329.600,274.939 329.600 C 275.024 329.600,277.952 327.920,281.447 325.867 C 284.941 323.814,288.610 321.678,289.600 321.119 C 290.590 320.560,293.020 319.162,295.000 318.010 C 299.457 315.419,303.764 312.992,308.860 310.200 C 309.663 309.760,311.553 308.655,313.060 307.745 C 314.567 306.835,316.430 305.739,317.200 305.310 C 317.970 304.882,319.673 303.935,320.985 303.206 C 322.296 302.478,324.313 301.278,325.466 300.541 C 326.618 299.803,327.658 299.200,327.775 299.200 C 328.073 299.200,331.868 296.924,333.865 295.548 C 334.781 294.917,335.711 294.400,335.932 294.400 C 336.153 294.400,336.393 294.262,336.467 294.092 C 336.540 293.923,337.559 292.983,338.732 292.003 C 344.351 287.306,348.131 280.223,349.406 272.000 C 350.264 266.465,350.282 133.345,349.425 127.717 C 348.290 120.261,345.315 114.372,339.903 108.868 C 338.133 107.067,333.445 103.600,332.781 103.600 C 332.571 103.600,332.400 103.459,332.400 103.288 C 332.400 103.116,331.905 102.764,331.300 102.506 C 330.695 102.248,329.192 101.443,327.960 100.718 C 326.729 99.993,324.209 98.535,322.360 97.479 C 320.512 96.422,318.460 95.237,317.800 94.845 C 317.140 94.453,315.700 93.634,314.600 93.025 C 313.500 92.415,312.410 91.762,312.179 91.574 C 311.752 91.228,303.942 86.649,301.000 85.020 C 300.120 84.533,298.770 83.774,298.000 83.333 C 297.230 82.892,295.520 81.937,294.200 81.212 C 292.880 80.487,291.620 79.756,291.400 79.588 C 290.878 79.189,283.649 74.998,278.926 72.356 C 278.225 71.964,276.924 71.183,276.034 70.621 C 275.144 70.060,274.314 69.600,274.189 69.600 C 274.064 69.600,272.976 68.970,271.772 68.199 C 270.568 67.429,268.641 66.289,267.491 65.665 C 264.154 63.857,261.161 62.152,255.400 58.781 C 253.420 57.623,250.720 56.072,249.400 55.336 C 248.080 54.600,246.730 53.817,246.400 53.596 C 246.070 53.376,245.530 53.074,245.200 52.927 C 244.870 52.779,244.510 52.555,244.400 52.429 C 244.290 52.303,243.840 52.004,243.400 51.763 C 239.344 49.550,237.740 48.649,237.400 48.390 C 236.995 48.082,236.136 47.594,231.800 45.212 C 230.480 44.487,229.220 43.755,229.000 43.586 C 228.780 43.416,227.790 42.835,226.800 42.294 C 225.810 41.753,223.380 40.355,221.400 39.187 C 213.639 34.610,209.056 32.774,203.579 32.052 C 199.671 31.536,199.693 31.535,195.400 32.202 M122.442 135.761 C 123.146 136.112,123.929 136.400,124.181 136.400 C 124.588 136.400,128.977 139.735,130.310 141.057 C 130.590 141.335,131.670 142.246,132.710 143.081 C 133.749 143.917,134.690 144.697,134.800 144.815 C 134.910 144.934,137.789 147.364,141.197 150.215 C 149.013 156.755,148.783 156.561,152.607 159.845 C 154.371 161.360,156.981 163.587,158.407 164.794 C 159.833 166.001,161.205 167.171,161.455 167.394 C 161.706 167.617,162.250 168.070,162.666 168.400 C 164.274 169.678,170.794 175.166,174.800 178.614 C 177.110 180.602,180.440 183.420,182.200 184.875 C 194.160 194.769,194.246 205.020,182.451 214.777 C 181.269 215.755,180.099 216.745,179.851 216.977 C 179.602 217.210,178.549 218.083,177.509 218.919 C 176.470 219.754,175.390 220.657,175.110 220.925 C 174.829 221.194,172.890 222.847,170.800 224.600 C 168.710 226.353,166.799 227.970,166.553 228.193 C 166.307 228.417,165.677 228.960,165.152 229.400 C 158.522 234.959,156.569 236.612,156.400 236.808 C 156.290 236.935,153.410 239.361,150.000 242.200 C 146.590 245.039,143.710 247.460,143.600 247.581 C 143.490 247.701,142.230 248.787,140.800 249.994 C 139.370 251.201,137.999 252.371,137.753 252.594 C 137.507 252.817,136.877 253.360,136.352 253.800 C 135.828 254.240,133.779 255.966,131.799 257.635 C 125.184 263.214,122.955 264.468,118.800 264.954 C 109.360 266.058,101.200 258.741,101.200 249.171 C 101.200 242.364,103.066 239.317,111.296 232.681 C 112.332 231.846,113.410 230.946,113.690 230.681 C 114.182 230.217,118.371 226.641,120.344 225.000 C 120.873 224.560,121.507 224.020,121.753 223.800 C 121.999 223.580,123.370 222.411,124.800 221.202 C 126.230 219.994,127.490 218.914,127.600 218.802 C 127.710 218.691,128.651 217.917,129.690 217.081 C 130.730 216.246,131.811 215.346,132.094 215.081 C 132.376 214.817,134.316 213.165,136.404 211.410 C 138.492 209.656,140.290 208.122,140.400 208.002 C 140.510 207.882,142.625 206.091,145.100 204.023 C 150.092 199.852,150.115 199.812,148.326 198.400 C 147.629 197.850,146.866 197.217,146.630 196.993 C 146.393 196.770,144.490 195.153,142.400 193.400 C 140.310 191.647,138.405 190.030,138.166 189.807 C 137.927 189.583,136.991 188.799,136.085 188.064 C 134.182 186.519,133.084 185.578,131.384 184.037 C 130.716 183.430,129.882 182.769,129.531 182.567 C 129.181 182.365,127.994 181.390,126.894 180.400 C 125.794 179.410,124.468 178.243,123.947 177.807 C 120.958 175.305,117.773 172.598,117.600 172.413 C 117.490 172.296,116.524 171.495,115.452 170.634 C 114.381 169.773,113.121 168.688,112.652 168.222 C 112.184 167.757,111.413 167.107,110.940 166.779 C 101.233 160.032,98.412 150.613,103.577 142.193 C 104.681 140.394,107.941 137.222,108.700 137.209 C 108.975 137.204,109.200 137.020,109.200 136.800 C 109.200 136.580,109.524 136.400,109.920 136.400 C 110.316 136.400,110.824 136.216,111.049 135.991 C 112.294 134.746,120.092 134.588,122.442 135.761 M288.533 233.998 C 303.706 240.314,301.491 262.192,285.415 264.802 C 282.214 265.322,213.517 265.317,209.920 264.797 C 199.619 263.307,193.606 251.652,198.110 241.903 C 199.823 238.196,202.726 235.766,208.400 233.290 C 209.098 232.986,220.930 232.846,247.528 232.827 L 285.656 232.800 288.533 233.998 " stroke="none" fill="#fbfbfb" fill-rule="evenodd"></path><path id="path2" d="M193.800 31.610 C 193.266 31.847,193.598 31.886,194.800 31.727 C 195.790 31.596,196.675 31.424,196.767 31.344 C 197.114 31.043,194.564 31.272,193.800 31.610 M202.833 31.344 C 202.925 31.424,203.810 31.606,204.800 31.750 C 206.058 31.933,206.419 31.891,206.000 31.612 C 205.460 31.253,202.432 30.997,202.833 31.344 M188.600 32.964 C 185.995 33.926,182.109 35.875,180.200 37.177 C 178.539 38.309,179.278 38.213,181.108 37.059 C 183.657 35.450,186.077 34.309,189.400 33.147 C 191.160 32.531,192.240 32.039,191.800 32.053 C 191.360 32.066,189.920 32.476,188.600 32.964 M210.000 33.014 C 211.430 33.549,212.765 33.934,212.966 33.871 C 213.423 33.727,208.726 31.992,207.959 32.021 C 207.652 32.032,208.570 32.479,210.000 33.014 M214.224 34.587 C 214.651 34.910,215.110 35.180,215.245 35.187 C 215.379 35.194,218.154 36.730,221.412 38.600 C 224.669 40.470,227.434 42.000,227.556 42.000 C 227.931 42.000,226.172 40.857,223.242 39.196 C 221.705 38.326,219.762 37.220,218.924 36.739 C 214.540 34.225,212.525 33.303,214.224 34.587 M174.400 40.468 C 172.090 41.812,169.604 43.249,168.876 43.662 C 161.528 47.831,159.200 49.226,159.200 49.463 C 159.200 49.564,159.335 49.569,159.500 49.474 C 159.665 49.378,163.400 47.230,167.800 44.700 C 177.895 38.895,178.800 38.357,178.800 38.160 C 178.800 37.907,178.817 37.898,174.400 40.468 M228.699 42.667 C 229.194 43.070,230.544 43.910,231.699 44.533 C 232.855 45.156,233.395 45.336,232.901 44.933 C 232.406 44.530,231.056 43.690,229.901 43.067 C 228.745 42.444,228.205 42.264,228.699 42.667 M234.611 46.147 C 235.045 46.448,237.290 47.766,239.600 49.076 C 241.910 50.386,244.561 51.940,245.492 52.529 C 246.423 53.118,247.263 53.600,247.359 53.600 C 247.455 53.600,248.878 54.395,250.520 55.366 C 254.074 57.467,256.354 58.645,255.800 58.094 C 255.435 57.730,241.940 49.887,237.339 47.364 C 236.273 46.780,235.229 46.143,235.020 45.951 C 234.811 45.758,234.456 45.600,234.231 45.600 C 234.006 45.600,234.177 45.846,234.611 46.147 M156.881 50.481 C 156.156 50.929,155.647 51.380,155.750 51.483 C 155.853 51.587,156.624 51.205,157.462 50.636 C 159.254 49.418,158.798 49.297,156.881 50.481 M152.980 52.751 C 152.771 52.944,151.520 53.690,150.200 54.408 C 148.880 55.126,147.322 56.048,146.738 56.457 C 146.154 56.865,145.576 57.200,145.452 57.200 C 145.111 57.200,139.200 60.834,139.200 61.044 C 139.200 61.267,140.469 60.608,142.526 59.315 C 143.365 58.788,144.625 58.034,145.326 57.639 C 151.084 54.396,154.000 52.686,154.000 52.555 C 154.000 52.272,153.366 52.394,152.980 52.751 M256.400 58.515 C 256.400 58.696,261.103 61.600,261.396 61.600 C 261.472 61.600,263.364 62.680,265.600 64.000 C 267.836 65.320,269.737 66.400,269.825 66.400 C 269.913 66.400,270.969 67.030,272.173 67.800 C 273.377 68.570,274.457 69.200,274.574 69.200 C 274.690 69.200,275.914 69.884,277.293 70.720 C 280.893 72.902,284.667 74.957,284.200 74.480 C 283.980 74.256,282.270 73.188,280.400 72.106 C 278.530 71.025,274.599 68.746,271.664 67.042 C 268.730 65.338,265.490 63.477,264.464 62.906 C 263.439 62.335,261.970 61.517,261.200 61.089 C 260.430 60.660,259.035 59.862,258.100 59.316 C 257.165 58.771,256.400 58.410,256.400 58.515 M137.376 61.787 C 136.949 62.110,136.780 62.375,137.000 62.375 C 137.220 62.375,137.749 62.110,138.176 61.787 C 138.604 61.464,138.773 61.200,138.553 61.200 C 138.333 61.200,137.804 61.464,137.376 61.787 M134.079 63.654 C 132.912 64.334,132.037 64.971,132.135 65.068 C 132.320 65.253,136.400 62.858,136.400 62.566 C 136.400 62.309,136.334 62.340,134.079 63.654 M129.449 66.262 C 127.213 67.724,118.307 72.800,117.977 72.800 C 117.824 72.800,117.464 73.082,117.178 73.426 C 116.847 73.825,117.302 73.702,118.429 73.088 C 122.091 71.094,131.015 65.906,131.380 65.560 C 132.143 64.837,130.982 65.259,129.449 66.262 M114.133 75.126 C 111.689 76.700,111.489 77.117,113.800 75.818 C 115.985 74.590,116.788 73.985,116.180 74.026 C 115.971 74.040,115.050 74.535,114.133 75.126 M285.471 75.395 C 285.939 75.722,288.724 77.359,291.660 79.032 C 294.597 80.705,297.229 82.263,297.510 82.494 C 297.790 82.725,298.119 82.815,298.240 82.693 C 298.361 82.572,297.232 81.791,295.730 80.956 C 294.229 80.122,292.064 78.846,290.919 78.120 C 289.775 77.394,288.736 76.800,288.611 76.800 C 288.486 76.800,287.671 76.350,286.800 75.800 C 285.098 74.725,284.067 74.411,285.471 75.395 M110.580 77.151 C 110.371 77.343,109.361 77.961,108.336 78.523 C 106.429 79.568,97.400 84.773,94.700 86.384 C 93.875 86.876,93.200 87.368,93.200 87.478 C 93.200 87.587,93.965 87.229,94.900 86.683 C 95.835 86.137,97.500 85.194,98.600 84.588 C 99.700 83.982,101.078 83.151,101.662 82.743 C 102.246 82.334,102.816 82.000,102.929 82.000 C 103.137 82.000,111.259 77.264,111.567 76.963 C 111.907 76.630,110.946 76.813,110.580 77.151 M299.020 83.162 C 299.375 83.501,305.130 86.868,309.200 89.119 C 310.190 89.666,311.450 90.423,312.000 90.800 C 313.309 91.699,314.800 92.473,314.800 92.255 C 314.800 92.051,308.993 88.400,308.669 88.400 C 308.546 88.400,307.311 87.712,305.923 86.870 C 299.257 82.828,297.911 82.105,299.020 83.162 M90.500 88.812 C 89.345 89.474,88.400 90.110,88.400 90.225 C 88.400 90.443,91.921 88.514,92.580 87.934 C 93.281 87.318,92.615 87.599,90.500 88.812 M86.980 90.751 C 86.771 90.944,85.520 91.690,84.200 92.408 C 82.880 93.126,81.350 94.017,80.800 94.388 C 80.250 94.759,78.585 95.732,77.100 96.551 C 75.615 97.369,74.400 98.134,74.400 98.249 C 74.400 98.458,75.610 97.800,82.800 93.680 C 87.168 91.178,88.346 90.400,87.769 90.400 C 87.544 90.400,87.189 90.558,86.980 90.751 M315.233 92.566 C 315.492 92.824,328.463 100.400,328.646 100.400 C 329.229 100.400,337.765 106.035,339.400 107.499 C 343.611 111.269,347.415 117.330,349.263 123.217 L 350.200 126.200 350.200 200.000 L 350.200 273.800 349.050 277.200 C 346.350 285.181,341.182 291.949,334.877 295.761 C 333.489 296.600,332.433 297.366,332.530 297.464 C 332.628 297.561,333.510 297.132,334.490 296.511 C 341.567 292.023,346.135 286.248,349.450 277.600 L 350.600 274.600 350.600 200.200 L 350.600 125.800 349.443 122.427 C 346.112 112.719,341.497 107.496,330.600 101.108 C 329.280 100.334,327.252 99.138,326.094 98.450 C 324.936 97.763,323.915 97.200,323.827 97.200 C 323.738 97.200,321.836 96.120,319.600 94.800 C 316.043 92.700,314.657 91.991,315.233 92.566 M72.000 99.355 C 71.230 99.854,68.980 101.218,67.000 102.386 C 63.659 104.358,59.213 107.773,58.141 109.192 C 57.889 109.526,57.285 110.250,56.799 110.800 C 55.414 112.367,53.803 114.811,52.654 117.087 C 51.029 120.304,51.428 120.164,53.155 116.911 C 56.718 110.199,60.693 106.408,69.400 101.417 C 71.600 100.156,73.571 98.962,73.780 98.762 C 74.501 98.075,73.420 98.435,72.000 99.355 M51.200 120.106 C 51.200 120.164,50.840 121.196,50.400 122.400 C 49.960 123.604,49.611 125.041,49.624 125.594 C 49.637 126.147,49.975 125.430,50.373 124.000 C 50.772 122.570,51.231 121.085,51.392 120.700 C 51.554 120.315,51.576 120.000,51.443 120.000 C 51.309 120.000,51.200 120.048,51.200 120.106 M49.061 129.900 C 48.726 133.445,48.801 267.942,49.140 270.800 C 49.283 272.010,49.400 240.195,49.400 200.100 C 49.400 160.005,49.381 127.200,49.358 127.200 C 49.335 127.200,49.201 128.415,49.061 129.900 M110.600 136.765 C 106.238 138.815,102.317 143.905,101.781 148.210 C 101.612 149.572,101.672 149.491,102.198 147.642 C 103.932 141.557,108.706 136.916,114.200 135.974 L 115.800 135.700 114.400 135.668 C 113.630 135.651,111.920 136.144,110.600 136.765 M119.800 136.011 C 120.680 136.182,121.850 136.440,122.400 136.583 C 123.038 136.749,122.912 136.619,122.054 136.222 C 121.314 135.880,120.144 135.623,119.454 135.650 C 118.285 135.697,118.308 135.721,119.800 136.011 M123.600 136.922 C 123.600 137.000,124.455 137.671,125.500 138.413 C 127.064 139.523,135.848 146.713,137.444 148.189 C 138.694 149.346,140.814 151.163,142.496 152.519 C 143.532 153.354,144.610 154.260,144.890 154.531 C 145.171 154.803,148.190 157.351,151.600 160.193 C 155.010 163.036,157.890 165.461,158.000 165.583 C 158.226 165.834,162.861 169.777,164.367 171.000 C 164.909 171.440,166.083 172.440,166.976 173.222 C 167.869 174.004,170.310 176.069,172.400 177.810 C 174.490 179.552,176.290 181.074,176.400 181.194 C 176.510 181.313,177.589 182.219,178.799 183.205 C 184.933 188.212,187.343 190.661,188.300 192.858 C 189.866 196.454,189.946 196.603,189.973 195.964 C 190.106 192.835,187.287 189.809,173.238 178.000 C 167.872 173.490,163.284 169.614,163.041 169.387 C 162.799 169.160,159.828 166.640,156.441 163.787 C 153.053 160.934,148.796 157.340,146.981 155.800 C 125.990 137.994,123.600 136.065,123.600 136.922 M101.606 152.833 C 101.609 153.585,101.792 154.470,102.012 154.800 C 102.291 155.219,102.333 154.858,102.150 153.600 C 101.825 151.359,101.598 151.040,101.606 152.833 M102.405 155.951 C 102.383 158.311,105.319 161.427,116.200 170.590 C 119.280 173.184,122.340 175.777,123.000 176.354 C 123.660 176.930,126.270 179.135,128.800 181.255 C 131.330 183.374,134.750 186.243,136.400 187.631 C 138.050 189.019,141.110 191.590,143.200 193.345 C 149.238 198.415,150.400 199.474,150.400 199.911 C 150.400 200.136,148.202 202.184,145.515 204.461 C 142.829 206.737,139.364 209.686,137.815 211.013 C 136.267 212.340,132.660 215.390,129.800 217.790 C 126.940 220.190,122.990 223.514,121.022 225.177 C 119.054 226.840,115.454 229.880,113.022 231.934 C 104.582 239.062,102.200 242.132,101.758 246.453 C 101.604 247.956,101.679 247.836,102.293 245.600 C 103.693 240.500,104.510 239.599,118.000 228.284 C 121.190 225.608,123.890 223.320,124.000 223.199 C 124.110 223.078,125.910 221.544,128.000 219.790 C 130.090 218.035,131.890 216.501,132.000 216.381 C 132.110 216.260,134.990 213.836,138.400 210.993 C 141.810 208.151,145.140 205.317,145.800 204.697 C 146.460 204.076,147.855 202.909,148.900 202.102 C 151.456 200.129,151.350 199.749,147.300 196.344 C 145.375 194.726,143.710 193.307,143.600 193.192 C 143.490 193.076,141.240 191.197,138.600 189.015 C 135.960 186.834,133.069 184.408,132.176 183.624 C 131.283 182.841,130.109 181.840,129.567 181.400 C 128.329 180.395,123.469 176.274,123.200 176.002 C 123.090 175.891,122.149 175.117,121.110 174.281 C 120.070 173.446,118.990 172.543,118.710 172.275 C 118.429 172.006,116.490 170.351,114.400 168.596 C 106.014 161.556,104.930 160.461,103.503 157.595 C 102.902 156.388,102.408 155.648,102.405 155.951 M190.137 199.800 C 190.139 201.560,190.209 202.230,190.293 201.289 C 190.378 200.349,190.377 198.909,190.291 198.089 C 190.205 197.270,190.136 198.040,190.137 199.800 M189.090 205.152 C 187.662 209.199,187.054 209.774,162.038 230.747 C 160.367 232.149,158.100 234.063,157.000 235.001 C 154.224 237.369,145.571 244.719,144.600 245.534 C 144.160 245.903,141.566 248.094,138.835 250.403 C 122.756 263.995,123.073 263.800,117.000 263.800 C 110.756 263.800,106.338 261.163,103.615 255.811 C 102.947 254.497,102.400 253.649,102.400 253.927 C 102.400 256.888,107.876 262.318,112.344 263.788 C 119.391 266.107,122.981 264.507,136.235 253.145 C 138.894 250.865,143.124 247.269,145.635 245.153 C 148.146 243.037,153.134 238.807,156.721 235.753 C 160.307 232.699,164.018 229.570,164.966 228.800 C 165.914 228.030,168.908 225.510,171.618 223.200 C 174.329 220.890,178.539 217.333,180.974 215.296 C 186.857 210.373,190.359 205.860,189.927 203.758 C 189.857 203.418,189.480 204.045,189.090 205.152 M209.600 233.757 C 203.848 235.038,199.156 239.285,197.780 244.457 C 197.131 246.895,197.021 251.902,197.597 252.800 C 197.852 253.198,197.898 252.497,197.735 250.720 C 196.944 242.123,202.203 235.304,210.628 234.001 C 216.683 233.065,285.032 233.661,287.710 234.673 C 291.056 235.938,293.758 238.087,295.450 240.829 C 297.199 243.662,297.719 243.986,296.206 241.300 C 294.048 237.470,289.752 234.454,285.245 233.606 C 281.947 232.985,212.443 233.124,209.600 233.757 M297.417 244.600 C 298.856 252.331,296.420 258.405,290.482 261.889 C 288.692 262.939,288.353 263.592,290.057 262.707 C 296.229 259.502,300.101 250.507,297.767 244.800 C 297.227 243.481,297.207 243.469,297.417 244.600 M101.606 250.833 C 101.609 251.585,101.792 252.470,102.012 252.800 C 102.291 253.219,102.333 252.858,102.150 251.600 C 101.825 249.359,101.598 249.040,101.606 250.833 M198.046 254.165 C 197.916 256.314,202.601 261.388,206.330 263.136 L 208.600 264.200 247.800 264.200 C 279.492 264.200,287.153 264.099,287.800 263.675 C 288.521 263.201,288.481 263.182,287.400 263.475 C 286.740 263.654,268.740 263.800,247.400 263.800 L 208.600 263.800 206.400 262.757 C 202.793 261.048,199.029 257.060,198.287 254.161 C 198.097 253.417,198.092 253.417,198.046 254.165 M49.600 274.510 C 49.600 275.303,49.769 276.057,49.976 276.185 C 50.201 276.324,50.259 275.809,50.120 274.909 C 49.810 272.900,49.600 272.739,49.600 274.510 M50.434 277.200 C 50.437 277.939,51.522 280.377,51.568 279.746 C 51.585 279.496,51.337 278.686,51.016 277.946 C 50.694 277.206,50.432 276.870,50.434 277.200 M52.404 282.233 C 52.410 282.827,54.738 286.714,55.292 287.056 C 55.577 287.232,55.497 286.905,55.108 286.310 C 54.727 285.728,54.032 284.565,53.565 283.726 C 52.582 281.964,52.399 281.728,52.404 282.233 M56.897 289.200 C 58.351 291.019,61.318 293.711,63.960 295.608 C 66.556 297.472,81.200 305.829,81.200 305.447 C 81.200 305.336,79.370 304.200,77.134 302.923 C 74.898 301.645,72.603 300.328,72.034 299.995 C 71.465 299.663,69.920 298.769,68.600 298.009 C 64.059 295.396,61.770 293.685,58.618 290.546 C 56.632 288.569,55.992 288.069,56.897 289.200 M326.000 300.946 C 322.810 302.775,317.410 305.896,314.000 307.881 C 310.590 309.865,305.820 312.619,303.400 314.001 C 300.980 315.382,295.220 318.679,290.600 321.328 C 285.980 323.976,281.840 326.338,281.400 326.578 C 280.960 326.817,279.340 327.757,277.800 328.666 C 274.678 330.511,263.192 337.168,261.129 338.329 C 260.398 338.741,258.000 340.119,255.800 341.393 C 253.600 342.666,246.940 346.501,241.000 349.915 C 235.060 353.329,229.529 356.544,228.708 357.061 C 227.887 357.577,227.146 358.000,227.060 358.000 C 226.974 358.000,224.855 359.197,222.352 360.660 C 214.911 365.008,211.009 366.804,207.000 367.724 C 206.368 367.869,206.416 367.917,207.231 367.954 C 208.409 368.007,214.308 365.778,216.876 364.309 C 217.824 363.767,221.030 361.923,224.000 360.211 C 229.308 357.150,230.405 356.523,234.000 354.492 C 234.990 353.932,236.921 352.783,238.290 351.937 C 239.660 351.092,240.883 350.400,241.009 350.400 C 241.135 350.400,242.223 349.770,243.427 349.000 C 244.631 348.230,245.676 347.600,245.750 347.600 C 245.825 347.600,247.486 346.673,249.443 345.539 C 251.399 344.406,255.250 342.184,258.000 340.602 C 260.750 339.020,265.430 336.322,268.400 334.606 C 271.370 332.890,274.430 331.132,275.200 330.700 C 275.970 330.268,276.780 329.778,277.000 329.611 C 277.220 329.444,278.210 328.863,279.200 328.319 C 284.770 325.262,285.897 324.619,286.862 323.943 C 287.446 323.535,288.014 323.200,288.125 323.200 C 288.235 323.200,290.097 322.149,292.263 320.865 C 296.553 318.322,299.216 316.798,302.000 315.295 C 302.990 314.760,303.980 314.184,304.200 314.014 C 304.420 313.845,305.680 313.113,307.000 312.388 C 308.320 311.663,309.940 310.758,310.600 310.379 C 315.809 307.380,319.062 305.470,319.400 305.212 C 319.620 305.044,320.627 304.452,321.639 303.896 C 327.393 300.731,332.597 297.542,331.900 297.610 C 331.845 297.615,329.190 299.116,326.000 300.946 M81.800 305.909 C 82.190 306.315,88.002 309.726,92.400 312.131 C 93.610 312.793,95.271 313.754,96.092 314.267 C 96.913 314.780,97.681 315.200,97.799 315.200 C 97.917 315.200,99.465 316.100,101.239 317.200 C 103.012 318.300,104.521 319.200,104.592 319.200 C 104.663 319.200,107.394 320.756,110.661 322.657 C 113.927 324.559,117.320 326.513,118.200 327.001 C 119.080 327.489,121.401 328.813,123.357 329.944 C 125.314 331.075,126.975 332.000,127.050 332.000 C 127.124 332.000,128.169 332.630,129.373 333.400 C 130.577 334.170,131.665 334.800,131.791 334.800 C 131.917 334.800,133.140 335.492,134.510 336.337 C 135.879 337.183,137.810 338.332,138.800 338.892 C 139.790 339.451,141.230 340.265,142.000 340.699 C 142.770 341.134,145.020 342.435,147.000 343.589 C 148.980 344.744,151.410 346.147,152.400 346.708 C 153.390 347.268,154.871 348.149,155.692 348.664 C 156.513 349.179,157.263 349.600,157.359 349.600 C 157.455 349.600,158.854 350.380,160.467 351.333 C 162.080 352.286,164.210 353.526,165.200 354.090 C 166.190 354.654,170.510 357.135,174.800 359.604 C 186.496 366.336,187.168 366.645,193.846 368.374 C 195.721 368.859,204.193 368.903,205.395 368.433 C 205.832 368.263,204.234 368.210,201.843 368.316 C 196.928 368.535,193.196 368.019,189.000 366.540 C 185.811 365.417,184.734 364.849,173.400 358.321 C 170.540 356.674,163.917 352.864,158.681 349.856 C 153.446 346.848,148.454 343.939,147.589 343.393 C 146.724 342.847,145.953 342.400,145.875 342.400 C 145.798 342.400,143.049 340.847,139.767 338.949 C 136.485 337.051,130.920 333.841,127.400 331.815 C 123.880 329.789,119.200 327.084,117.000 325.804 C 114.800 324.524,112.280 323.072,111.400 322.578 C 110.520 322.084,107.550 320.374,104.800 318.780 C 98.007 314.841,91.538 311.200,91.332 311.200 C 91.238 311.200,90.225 310.606,89.081 309.880 C 86.296 308.113,81.299 305.388,81.800 305.909 " stroke="none" fill="#747474" fill-rule="evenodd"></path><path id="path3" d="M194.200 32.000 C 192.470 32.440,194.357 32.455,196.800 32.020 L 198.600 31.700 197.000 31.697 C 196.120 31.696,194.860 31.832,194.200 32.000 M203.000 32.023 C 203.880 32.205,205.140 32.343,205.800 32.330 L 207.000 32.305 205.800 32.000 C 205.140 31.832,203.880 31.694,203.000 31.693 L 201.400 31.692 203.000 32.023 M188.800 33.437 C 185.733 34.571,185.271 34.798,180.810 37.355 C 168.694 44.302,166.990 45.297,166.620 45.644 C 165.880 46.338,166.838 45.986,168.434 44.979 C 170.119 43.915,170.999 43.410,175.000 41.212 C 176.320 40.487,177.580 39.757,177.800 39.590 C 178.229 39.263,179.965 38.274,183.800 36.173 C 185.120 35.449,187.534 34.395,189.165 33.830 C 190.796 33.265,192.221 32.713,192.332 32.602 C 192.765 32.168,191.282 32.519,188.800 33.437 M208.000 32.755 C 208.330 32.936,209.590 33.422,210.800 33.835 C 213.361 34.708,216.372 36.230,221.400 39.190 C 223.380 40.356,225.810 41.753,226.800 42.294 C 227.790 42.835,228.780 43.416,229.000 43.586 C 229.220 43.755,230.480 44.487,231.800 45.212 C 235.801 47.410,236.681 47.915,238.366 48.979 C 239.256 49.540,240.081 50.000,240.200 50.000 C 240.319 50.000,241.129 50.450,242.000 51.000 C 243.702 52.075,244.733 52.389,243.329 51.405 C 242.591 50.889,235.521 46.792,230.000 43.683 C 229.010 43.125,227.554 42.294,226.765 41.835 C 217.765 36.600,213.897 34.531,211.291 33.558 C 208.320 32.448,206.744 32.063,208.000 32.755 M160.200 49.174 C 157.340 50.874,154.190 52.720,153.200 53.276 C 147.195 56.647,144.007 58.540,144.130 58.663 C 144.347 58.881,146.729 57.626,149.704 55.727 C 151.191 54.777,152.514 54.000,152.644 54.000 C 152.773 54.000,153.897 53.387,155.140 52.637 C 156.383 51.887,158.147 50.852,159.061 50.337 C 165.463 46.725,166.739 45.899,165.700 46.041 C 165.535 46.064,163.060 47.473,160.200 49.174 M245.949 53.338 C 246.251 53.702,246.639 54.000,246.811 54.000 C 247.132 54.000,249.139 55.117,255.400 58.782 C 258.919 60.841,261.177 62.136,264.000 63.714 C 264.770 64.145,265.755 64.745,266.189 65.048 C 266.623 65.352,267.160 65.600,267.382 65.600 C 267.961 65.600,265.513 64.018,261.800 61.993 C 260.040 61.033,257.664 59.652,256.519 58.924 C 255.375 58.196,254.355 57.600,254.252 57.600 C 254.150 57.600,252.722 56.805,251.080 55.834 C 246.448 53.096,245.275 52.525,245.949 53.338 M142.200 59.600 C 141.540 59.981,136.680 62.764,131.400 65.783 C 126.120 68.802,121.620 71.412,121.400 71.583 C 121.180 71.753,120.190 72.340,119.200 72.885 C 114.345 75.563,107.651 79.422,106.407 80.260 C 104.546 81.516,105.194 81.467,107.200 80.200 C 108.071 79.650,108.968 79.200,109.192 79.200 C 109.416 79.200,109.602 79.065,109.604 78.900 C 109.606 78.735,110.416 78.245,111.404 77.810 C 112.392 77.376,113.200 76.881,113.200 76.710 C 113.200 76.540,113.354 76.400,113.543 76.400 C 113.898 76.400,119.332 73.336,122.293 71.467 C 123.223 70.880,124.081 70.400,124.200 70.400 C 124.319 70.400,125.144 69.940,126.034 69.379 C 127.719 68.315,128.599 67.810,132.600 65.612 C 133.920 64.887,135.180 64.157,135.400 63.990 C 135.803 63.683,136.619 63.220,141.000 60.811 C 143.696 59.329,143.799 59.258,143.567 59.053 C 143.475 58.972,142.860 59.218,142.200 59.600 M268.200 65.875 C 268.706 66.371,273.906 69.600,274.198 69.600 C 274.318 69.600,275.144 70.060,276.034 70.621 C 276.924 71.183,278.225 71.964,278.926 72.356 C 283.649 74.998,290.878 79.189,291.400 79.588 C 291.620 79.756,292.880 80.487,294.200 81.212 C 295.520 81.937,297.230 82.892,298.000 83.333 C 298.770 83.774,300.120 84.533,301.000 85.020 C 303.942 86.649,311.752 91.228,312.179 91.574 C 312.410 91.762,313.500 92.415,314.600 93.025 C 315.700 93.634,317.140 94.453,317.800 94.845 C 318.460 95.237,320.512 96.422,322.360 97.479 C 324.209 98.535,326.729 99.993,327.960 100.718 C 329.192 101.443,330.695 102.248,331.300 102.506 C 331.905 102.764,332.400 103.116,332.400 103.288 C 332.400 103.459,332.571 103.600,332.781 103.600 C 333.445 103.600,338.133 107.067,339.903 108.868 C 345.315 114.372,348.290 120.261,349.425 127.717 C 350.282 133.345,350.264 266.465,349.406 272.000 C 348.131 280.223,344.351 287.306,338.732 292.003 C 337.559 292.983,336.540 293.923,336.467 294.092 C 336.393 294.262,336.153 294.400,335.932 294.400 C 335.711 294.400,334.781 294.917,333.865 295.548 C 331.868 296.924,328.073 299.200,327.775 299.200 C 327.658 299.200,326.618 299.803,325.466 300.541 C 324.313 301.278,322.296 302.478,320.985 303.206 C 319.673 303.935,317.970 304.882,317.200 305.310 C 316.430 305.739,314.567 306.835,313.060 307.745 C 311.553 308.655,309.663 309.760,308.860 310.200 C 303.764 312.992,299.457 315.419,295.000 318.010 C 293.020 319.162,290.590 320.560,289.600 321.119 C 288.610 321.678,284.941 323.814,281.447 325.867 C 277.952 327.920,275.024 329.600,274.939 329.600 C 274.854 329.600,274.056 330.060,273.166 330.621 C 271.496 331.675,270.690 332.138,266.600 334.391 C 265.280 335.118,263.722 336.048,263.138 336.457 C 262.554 336.865,261.986 337.200,261.876 337.200 C 261.654 337.200,260.423 337.910,238.400 350.732 C 237.630 351.180,235.920 352.124,234.600 352.830 C 233.280 353.535,231.252 354.717,230.092 355.456 C 228.933 356.195,227.913 356.800,227.825 356.800 C 227.738 356.800,226.346 357.580,224.733 358.533 C 210.967 366.665,208.893 367.402,199.800 367.395 C 191.484 367.389,188.572 366.469,179.000 360.818 C 177.020 359.650,173.420 357.571,171.000 356.200 C 165.568 353.121,164.913 352.743,159.200 349.400 C 154.669 346.748,152.357 345.421,149.600 343.892 C 148.830 343.464,148.020 342.978,147.800 342.810 C 147.460 342.551,145.856 341.650,141.800 339.437 C 141.360 339.196,140.910 338.888,140.800 338.752 C 140.690 338.615,139.520 337.939,138.200 337.248 C 136.880 336.558,135.530 335.815,135.200 335.597 C 134.870 335.379,131.630 333.490,128.000 331.400 C 124.370 329.310,121.130 327.425,120.800 327.211 C 120.470 326.997,119.570 326.508,118.800 326.123 C 118.030 325.739,116.008 324.564,114.307 323.512 C 112.606 322.461,111.117 321.600,110.999 321.600 C 110.881 321.600,110.050 321.136,109.152 320.570 C 107.667 319.632,106.726 319.092,102.400 316.692 C 101.630 316.264,100.820 315.778,100.600 315.611 C 100.166 315.281,97.899 314.016,93.200 311.479 C 91.550 310.589,89.507 309.428,88.660 308.900 C 87.813 308.372,86.283 307.473,85.260 306.904 C 84.237 306.334,82.860 305.547,82.200 305.155 C 81.540 304.763,79.488 303.578,77.640 302.521 C 75.791 301.465,73.271 300.007,72.040 299.282 C 70.808 298.557,69.305 297.752,68.700 297.494 C 68.095 297.236,67.600 296.884,67.600 296.712 C 67.600 296.541,67.441 296.400,67.246 296.400 C 66.437 296.400,61.792 292.936,59.373 290.529 C 55.022 286.199,52.243 281.062,50.431 274.000 C 50.125 272.807,50.067 272.753,50.036 273.634 C 49.927 276.760,53.705 284.604,57.377 288.877 C 61.595 293.787,63.933 295.415,78.200 303.384 C 79.080 303.876,82.050 305.586,84.800 307.184 C 87.550 308.782,91.150 310.817,92.800 311.705 C 94.450 312.594,95.980 313.455,96.200 313.618 C 96.420 313.782,100.290 316.030,104.800 318.613 C 109.310 321.197,115.340 324.665,118.200 326.320 C 127.973 331.976,131.000 333.723,132.200 334.400 C 133.226 334.979,135.919 336.535,142.800 340.524 C 143.570 340.971,144.856 341.710,145.657 342.168 C 150.069 344.687,154.785 347.403,159.472 350.123 C 162.371 351.805,165.341 353.518,166.072 353.930 C 166.802 354.341,169.200 355.730,171.400 357.016 C 195.253 370.961,202.740 371.748,219.562 362.081 C 222.511 360.387,225.751 358.532,226.762 357.961 C 228.331 357.074,236.761 352.216,240.600 349.987 C 241.260 349.604,246.570 346.545,252.400 343.190 C 258.230 339.834,265.160 335.828,267.800 334.287 C 270.440 332.745,273.320 331.081,274.200 330.588 C 276.575 329.259,282.859 325.650,287.400 323.008 C 293.440 319.495,304.317 313.272,306.800 311.911 C 308.010 311.247,311.520 309.227,314.600 307.420 C 317.680 305.614,322.180 302.997,324.600 301.605 C 339.352 293.120,343.011 289.957,346.767 282.443 C 350.592 274.791,350.450 278.221,350.308 197.000 L 350.185 126.600 349.284 123.674 C 346.421 114.378,340.810 107.531,331.874 102.430 C 325.660 98.882,315.054 92.748,306.600 87.813 C 304.400 86.528,302.027 85.155,301.326 84.760 C 300.625 84.366,299.324 83.583,298.434 83.021 C 297.544 82.460,296.737 82.000,296.641 82.000 C 296.545 82.000,295.146 81.220,293.533 80.267 C 291.920 79.314,289.790 78.082,288.800 77.529 C 287.810 76.976,285.200 75.477,283.000 74.199 C 278.756 71.732,268.872 66.053,268.200 65.696 C 267.933 65.554,267.933 65.613,268.200 65.875 M100.400 83.668 C 98.090 85.012,95.604 86.449,94.876 86.862 C 94.148 87.275,92.258 88.356,90.676 89.265 C 89.094 90.174,86.393 91.718,84.673 92.698 C 82.952 93.677,81.630 94.564,81.735 94.668 C 81.839 94.772,82.658 94.395,83.554 93.829 C 84.451 93.263,85.286 92.800,85.411 92.800 C 85.536 92.800,86.623 92.170,87.827 91.400 C 89.031 90.630,90.087 90.000,90.175 90.000 C 90.263 90.000,92.164 88.920,94.400 87.600 C 96.636 86.280,98.545 85.200,98.642 85.200 C 98.862 85.200,104.058 81.991,104.580 81.534 C 105.370 80.840,104.475 81.297,100.400 83.668 M78.680 96.201 C 77.404 96.970,76.270 97.600,76.161 97.600 C 76.051 97.600,74.977 98.230,73.773 99.000 C 72.569 99.770,71.498 100.400,71.393 100.400 C 70.554 100.400,61.691 106.449,59.733 108.359 C 56.453 111.557,51.069 119.600,52.208 119.600 C 52.317 119.600,52.929 118.520,53.569 117.200 C 56.569 111.007,62.375 105.721,71.799 100.603 C 72.680 100.124,74.300 99.224,75.400 98.601 C 76.500 97.978,78.030 97.122,78.800 96.699 C 80.116 95.975,81.595 94.799,81.186 94.801 C 81.084 94.802,79.956 95.432,78.680 96.201 M50.858 122.703 C 50.386 124.199,50.016 125.777,50.036 126.211 C 50.056 126.645,50.242 126.370,50.449 125.600 C 50.656 124.830,51.099 123.325,51.435 122.256 C 51.771 121.187,51.971 120.238,51.881 120.148 C 51.791 120.057,51.330 121.207,50.858 122.703 M49.796 200.000 C 49.796 239.930,49.843 256.265,49.900 236.300 C 49.957 216.335,49.957 183.665,49.900 163.700 C 49.843 143.735,49.796 160.070,49.796 200.000 M113.229 135.235 C 112.254 135.426,111.264 135.793,111.029 136.050 C 110.708 136.400,110.801 136.438,111.400 136.202 C 114.284 135.064,119.911 135.066,122.566 136.207 C 123.084 136.430,123.244 136.395,123.062 136.100 C 122.392 135.017,116.834 134.528,113.229 135.235 M109.200 136.800 C 109.200 137.020,108.975 137.204,108.700 137.209 C 106.305 137.251,101.131 145.299,101.247 148.800 C 101.290 150.070,101.324 150.025,101.612 148.312 C 102.323 144.091,104.844 140.269,108.573 137.758 C 109.734 136.976,110.295 136.400,109.895 136.400 C 109.513 136.400,109.200 136.580,109.200 136.800 M125.833 138.057 C 127.836 139.460,130.403 141.547,136.400 146.649 C 136.950 147.117,138.309 148.287,139.420 149.250 C 140.531 150.212,142.331 151.745,143.420 152.656 C 144.509 153.567,148.449 156.897,152.175 160.056 C 155.901 163.215,160.230 166.880,161.795 168.200 C 163.360 169.520,166.229 171.950,168.171 173.600 C 170.113 175.250,172.380 177.140,173.208 177.800 C 184.172 186.531,188.358 190.807,189.812 194.756 C 190.171 195.731,190.353 195.933,190.372 195.376 C 190.445 193.233,187.087 188.918,182.200 184.875 C 180.440 183.420,177.110 180.602,174.800 178.614 C 170.794 175.166,164.274 169.678,162.666 168.400 C 162.250 168.070,161.706 167.617,161.455 167.394 C 161.205 167.171,159.833 166.001,158.407 164.794 C 156.981 163.587,154.371 161.360,152.607 159.845 C 148.783 156.561,149.013 156.755,141.197 150.215 C 137.789 147.364,134.910 144.934,134.800 144.815 C 134.690 144.697,133.749 143.917,132.710 143.081 C 131.670 142.246,130.590 141.335,130.310 141.057 C 128.792 139.551,124.559 136.400,124.054 136.400 C 123.731 136.400,124.532 137.146,125.833 138.057 M101.260 153.163 C 101.132 156.925,105.400 162.928,110.940 166.779 C 111.413 167.107,112.184 167.757,112.652 168.222 C 113.121 168.688,114.381 169.773,115.452 170.634 C 116.524 171.495,117.490 172.296,117.600 172.413 C 117.773 172.598,120.958 175.305,123.947 177.807 C 124.468 178.243,125.794 179.410,126.894 180.400 C 127.994 181.390,129.181 182.365,129.531 182.567 C 129.882 182.769,130.716 183.430,131.384 184.037 C 133.084 185.578,134.182 186.519,136.085 188.064 C 136.991 188.799,137.927 189.583,138.166 189.807 C 138.405 190.030,140.310 191.647,142.400 193.400 C 144.490 195.153,146.393 196.770,146.630 196.993 C 146.866 197.217,147.629 197.850,148.326 198.400 C 150.115 199.812,150.092 199.852,145.100 204.023 C 142.625 206.091,140.510 207.882,140.400 208.002 C 140.290 208.122,138.492 209.656,136.404 211.410 C 134.316 213.165,132.376 214.817,132.094 215.081 C 131.811 215.346,130.730 216.246,129.690 217.081 C 128.651 217.917,127.710 218.691,127.600 218.802 C 127.490 218.914,126.230 219.994,124.800 221.202 C 123.370 222.411,121.999 223.580,121.753 223.800 C 121.507 224.020,120.873 224.560,120.344 225.000 C 118.371 226.641,114.182 230.217,113.690 230.681 C 113.410 230.946,112.332 231.846,111.296 232.681 C 104.119 238.468,101.108 242.703,101.247 246.813 C 101.287 248.002,101.342 247.915,101.628 246.200 C 102.523 240.833,103.413 239.860,120.970 225.049 C 124.913 221.722,129.308 218.010,130.736 216.800 C 134.087 213.961,135.777 212.540,143.568 206.009 C 150.375 200.304,150.703 199.828,148.855 198.329 C 146.734 196.607,137.802 189.035,137.600 188.787 C 137.490 188.652,136.349 187.693,135.065 186.655 C 132.994 184.982,129.543 182.075,123.603 177.000 C 122.573 176.120,120.758 174.590,119.569 173.600 C 118.380 172.610,116.141 170.720,114.593 169.400 C 113.044 168.080,110.613 166.010,109.189 164.800 C 104.236 160.591,102.000 157.060,101.464 152.600 C 101.362 151.753,101.302 151.919,101.260 153.163 M190.346 200.400 C 190.049 206.937,188.848 208.831,180.611 215.750 C 175.506 220.038,174.960 220.501,171.767 223.250 C 170.649 224.212,168.219 226.279,166.367 227.842 C 164.515 229.405,159.310 233.798,154.800 237.604 C 150.290 241.410,145.626 245.351,144.436 246.362 C 143.245 247.373,140.275 249.881,137.836 251.935 C 135.396 253.989,132.449 256.487,131.287 257.487 C 124.297 263.498,122.431 264.400,116.980 264.400 C 109.140 264.400,102.703 258.984,101.601 251.461 L 101.300 249.400 101.250 251.158 C 101.088 256.847,107.674 263.717,114.362 264.837 C 120.305 265.832,123.782 264.396,131.799 257.635 C 133.779 255.966,135.828 254.240,136.352 253.800 C 136.877 253.360,137.507 252.817,137.753 252.594 C 137.999 252.371,139.370 251.201,140.800 249.994 C 142.230 248.787,143.490 247.701,143.600 247.581 C 143.710 247.460,146.590 245.039,150.000 242.200 C 153.410 239.361,156.290 236.935,156.400 236.808 C 156.569 236.612,158.522 234.959,165.152 229.400 C 165.677 228.960,166.307 228.417,166.553 228.193 C 166.799 227.970,168.710 226.353,170.800 224.600 C 172.890 222.847,174.829 221.194,175.110 220.925 C 175.390 220.657,176.470 219.754,177.509 218.919 C 178.549 218.083,179.602 217.210,179.851 216.977 C 180.099 216.745,181.269 215.755,182.451 214.777 C 189.094 209.282,191.942 203.611,190.879 198.000 C 190.574 196.392,190.517 196.648,190.346 200.400 M208.400 233.290 C 204.454 235.012,202.858 235.990,201.094 237.770 C 198.763 240.121,197.144 243.326,196.959 245.957 C 196.888 246.971,196.919 247.440,197.028 247.000 C 197.137 246.560,197.431 245.390,197.681 244.400 C 198.875 239.671,203.252 235.438,208.634 233.805 C 211.429 232.957,283.684 232.897,286.436 233.740 C 298.979 237.583,302.619 252.056,293.178 260.544 C 288.311 264.920,288.944 264.865,245.175 264.720 L 209.000 264.600 206.400 263.365 C 201.201 260.897,198.329 257.094,197.059 251.000 C 196.957 250.510,196.875 250.684,196.846 251.450 C 196.641 256.977,203.373 263.850,209.920 264.797 C 213.517 265.317,282.214 265.322,285.415 264.802 C 301.491 262.192,303.706 240.314,288.533 233.998 L 285.656 232.800 247.528 232.827 C 220.930 232.846,209.098 232.986,208.400 233.290 " stroke="none" fill="#a1a1a1" fill-rule="evenodd"></path><path id="path4" d="M350.093 129.200 C 350.093 129.970,350.175 130.285,350.276 129.900 C 350.376 129.515,350.376 128.885,350.276 128.500 C 350.175 128.115,350.093 128.430,350.093 129.200 M49.395 199.800 C 49.395 236.980,49.442 252.131,49.500 233.468 C 49.557 214.806,49.557 184.386,49.500 165.868 C 49.442 147.351,49.395 162.620,49.395 199.800 M115.907 135.490 C 116.626 135.579,117.706 135.577,118.307 135.486 C 118.908 135.395,118.320 135.322,117.000 135.324 C 115.680 135.326,115.188 135.401,115.907 135.490 M196.901 249.000 C 196.905 249.880,196.987 250.193,197.083 249.695 C 197.179 249.198,197.175 248.478,197.075 248.095 C 196.975 247.713,196.896 248.120,196.901 249.000 M230.130 264.700 C 239.992 264.760,256.012 264.759,265.730 264.700 C 275.449 264.640,267.380 264.591,247.800 264.592 C 228.220 264.592,220.269 264.640,230.130 264.700 M350.093 270.800 C 350.093 271.570,350.175 271.885,350.276 271.500 C 350.376 271.115,350.376 270.485,350.276 270.100 C 350.175 269.715,350.093 270.030,350.093 270.800 " stroke="none" fill="#7c7c7c" fill-rule="evenodd"></path></g></svg>